<svg xmlns="http://www.w3.org/2000/svg"  viewBox="0 0 50 50" width="50px" height="50px"><path d="M 25 2 C 12.300781 2 2 12.300781 2 25 C 2 37.699219 12.300781 48 25 48 C 37.699219 48 48 37.699219 48 25 C 48 12.300781 37.699219 2 25 2 Z M 38 28 C 38 28.601563 37.601563 29 37 29 L 29 29 L 29 37 C 29 37.601563 28.601563 38 28 38 L 22 38 C 21.398438 38 21 37.601563 21 37 L 21 29 L 13 29 C 12.398438 29 12 28.601563 12 28 L 12 22 C 12 21.398438 12.398438 21 13 21 L 21 21 L 21 13 C 21 12.398438 21.398438 12 22 12 L 28 12 C 28.601563 12 29 12.398438 29 13 L 29 21 L 37 21 C 37.601563 21 38 21.398438 38 22 Z"/></svg>